<?xml version="1.0" standalone="no"?>
<!DOCTYPE svg PUBLIC "-//W3C//DTD SVG 20010904//EN"
 "http://www.w3.org/TR/2001/REC-SVG-20010904/DTD/svg10.dtd">
<svg version="1.0" xmlns="http://www.w3.org/2000/svg"
 width="1920.000000pt" height="1080.000000pt" viewBox="0 0 1920.000000 1080.000000"
 preserveAspectRatio="xMidYMid meet">

<g transform="translate(0.000000,1080.000000) scale(0.100000,-0.100000)"
fill="#000000" stroke="none">
<path d="M480 10390 l0 -220 220 0 220 0 0 100 0 100 8685 0 8685 0 0 -100 0
-100 223 0 222 0 0 220 0 220 -222 0 -223 0 0 -100 0 -100 -8685 0 -8685 0 0
100 0 100 -220 0 -220 0 0 -220z m400 0 l0 -180 -177 2 -178 3 -3 165 c-1 90
0 170 2 177 4 10 47 13 181 13 l175 0 0 -180z m17810 0 l0 -180 -175 0 -175 0
0 180 0 180 175 0 175 0 0 -180z"/>
<path d="M8175 6490 c-3 -5 -3 -15 0 -20 4 -6 1 -9 -7 -8 -7 2 -12 -5 -12 -14
1 -10 -3 -16 -10 -15 -6 1 -10 -6 -10 -15 1 -10 -2 -15 -7 -13 -10 7 -32 -32
-24 -45 3 -5 0 -12 -6 -16 -8 -5 -9 -3 -4 6 6 9 4 11 -4 6 -7 -5 -10 -14 -7
-22 3 -8 0 -13 -7 -11 -7 1 -11 -6 -11 -15 1 -10 -3 -16 -10 -15 -6 1 -10 -6
-10 -15 1 -10 -3 -16 -10 -15 -6 1 -10 -6 -10 -15 1 -10 -3 -16 -10 -15 -6 1
-10 -6 -10 -15 1 -10 -3 -16 -10 -15 -6 1 -10 -6 -10 -15 1 -10 -2 -15 -7 -13
-10 7 -32 -32 -24 -45 3 -5 0 -12 -6 -16 -8 -5 -9 -3 -4 6 6 9 4 11 -4 6 -7
-5 -10 -14 -7 -22 3 -8 0 -13 -7 -11 -7 1 -11 -6 -11 -15 1 -10 -3 -16 -10
-15 -6 1 -10 -6 -10 -15 1 -10 -3 -16 -10 -15 -6 1 -10 -6 -10 -15 1 -10 -3
-16 -10 -15 -6 1 -10 -6 -10 -15 1 -10 -3 -16 -10 -15 -6 1 -10 -6 -10 -15 1
-10 -2 -15 -7 -13 -10 7 -32 -32 -24 -45 3 -5 0 -12 -6 -16 -8 -5 -10 -2 -5 7
4 8 -2 3 -13 -11 -11 -14 -19 -31 -16 -37 2 -7 -1 -12 -8 -10 -7 1 -11 -6 -11
-15 1 -10 -3 -16 -10 -15 -6 1 -10 -6 -10 -15 1 -10 -3 -16 -10 -15 -6 1 -10
-6 -10 -15 1 -10 -3 -16 -10 -15 -6 1 -10 -6 -10 -15 1 -10 -3 -16 -10 -15 -6
1 -10 -6 -10 -15 1 -10 -3 -16 -10 -15 -6 1 -10 -6 -10 -15 1 -10 -2 -15 -7
-12 -15 9 -10 -21 7 -42 8 -10 12 -13 8 -5 -4 9 -3 12 4 7 6 -4 8 -14 5 -23
-4 -10 -2 -14 4 -10 6 4 10 -1 9 -11 0 -9 4 -16 10 -15 7 1 11 -5 10 -15 0 -9
4 -16 10 -15 7 1 11 -5 10 -15 0 -9 4 -16 10 -15 7 1 11 -5 10 -15 0 -9 4 -16
10 -15 7 1 11 -5 10 -15 0 -9 4 -16 11 -15 7 2 10 -3 8 -10 -3 -6 5 -23 16
-37 11 -14 17 -19 13 -11 -4 9 -3 12 4 7 6 -4 8 -14 5 -23 -4 -10 -2 -14 4
-10 6 4 10 -1 9 -11 0 -9 4 -16 10 -15 7 1 11 -5 10 -15 0 -9 4 -16 10 -15 7
1 11 -5 10 -15 0 -9 4 -16 10 -15 7 1 11 -5 10 -15 0 -9 4 -16 10 -15 7 1 11
-5 10 -15 0 -9 4 -16 11 -15 7 2 10 -3 8 -10 -3 -6 5 -23 16 -37 11 -14 17
-19 13 -11 -4 9 -3 12 4 7 6 -4 8 -14 5 -23 -4 -10 -2 -14 4 -10 6 4 10 -1 9
-11 0 -9 4 -16 10 -15 7 1 11 -5 10 -15 0 -9 4 -16 10 -15 7 1 11 -5 10 -15 0
-9 4 -16 10 -15 7 1 11 -5 10 -15 0 -9 4 -16 10 -15 7 1 11 -5 10 -15 0 -9 4
-16 11 -15 7 2 10 -3 8 -10 -3 -6 5 -23 16 -37 11 -14 17 -19 13 -11 -4 9 -3
12 4 7 6 -4 8 -14 5 -23 -4 -10 -2 -14 4 -10 6 4 10 -1 9 -11 0 -9 4 -16 10
-15 7 1 11 -5 10 -15 0 -9 5 -16 12 -14 8 1 11 -2 7 -8 -4 -6 -1 -17 5 -25 11
-13 119 -15 771 -15 l759 0 0 855 0 855 -759 0 c-496 0 -762 -3 -766 -10z"/>
<path d="M480 410 l0 -220 220 0 220 0 0 100 0 100 8685 0 8685 0 0 -100 0
-100 223 0 222 0 0 220 0 220 -222 0 -223 0 0 -100 0 -100 -8685 0 -8685 0 0
100 0 100 -220 0 -220 0 0 -220z m400 0 l0 -180 -177 2 -178 3 -3 165 c-1 90
0 170 2 177 4 10 47 13 181 13 l175 0 0 -180z m17810 0 l0 -180 -175 0 -175 0
0 180 0 180 175 0 175 0 0 -180z"/>
</g>
</svg>