<?xml version="1.0" standalone="no"?>
<!DOCTYPE svg PUBLIC "-//W3C//DTD SVG 20010904//EN"
 "http://www.w3.org/TR/2001/REC-SVG-20010904/DTD/svg10.dtd">
<svg version="1.0" xmlns="http://www.w3.org/2000/svg"
 width="500.000000pt" height="500.000000pt" viewBox="0 0 500.000000 500.000000"
 preserveAspectRatio="xMidYMid meet">

<g transform="translate(0.000000,500.000000) scale(0.100000,-0.100000)"
fill="#000000" stroke="none">
<path d="M1880 2959 c0 -5 6 -7 13 -3 7 4 9 3 4 -2 -5 -5 -14 -9 -20 -9 -7 0
-11 -8 -11 -17 1 -10 -3 -16 -10 -15 -6 1 -10 -6 -10 -15 1 -10 -2 -15 -7 -13
-10 7 -32 -32 -24 -45 3 -5 0 -12 -6 -16 -8 -5 -10 -2 -5 7 4 8 -2 3 -13 -11
-11 -14 -19 -31 -16 -37 2 -7 -1 -12 -8 -10 -7 1 -11 -6 -11 -15 1 -10 -3 -16
-10 -15 -6 1 -10 -6 -10 -15 1 -10 -3 -16 -10 -15 -6 1 -10 -6 -10 -15 1 -10
-3 -16 -10 -15 -6 1 -10 -6 -10 -15 1 -10 -2 -15 -7 -12 -5 3 -16 -10 -25 -28
-15 -32 -15 -36 6 -71 12 -20 26 -35 30 -32 4 3 7 -3 6 -13 0 -9 4 -16 10 -15
7 1 11 -5 10 -15 0 -9 4 -16 10 -15 7 1 11 -5 10 -15 0 -9 4 -16 10 -15 7 1
11 -5 10 -15 0 -9 4 -16 11 -15 7 2 10 -3 7 -11 -3 -8 0 -17 7 -22 8 -5 10 -3
4 6 -5 9 -4 11 4 6 6 -4 9 -11 6 -16 -8 -13 14 -52 24 -45 5 2 8 -3 7 -13 0
-9 4 -16 10 -15 7 1 11 -5 10 -15 0 -9 4 -16 10 -15 7 1 11 -5 10 -15 -1 -16
25 -17 332 -20 l332 -2 0 370 0 370 -330 0 c-226 0 -330 -3 -330 -11z"/>
</g>
</svg>